<svg width="144" height="156" viewBox="0 0 144 156" fill="none" xmlns="http://www.w3.org/2000/svg">
<g filter="url(#filter0_d_14_3839)">
<path d="M83.2845 82.2956C82.2255 82.2399 81.2223 82.6858 80.6651 83.5777L71.8027 97.4003L62.9404 83.5777C62.3832 82.6858 61.3799 82.1843 60.3209 82.2956C41.872 84.2466 30 90.5449 30 98.4036C30 109.272 51.5145 115.125 71.8027 115.125C92.091 115.125 113.605 109.272 113.605 98.4036C113.605 90.5449 101.733 84.2466 83.2845 82.2956Z" fill="#98C0FF"/>
<path d="M113.605 98.4037C113.605 109.272 92.091 115.125 71.8027 115.125V97.4004L80.6651 83.5778C81.2223 82.6859 82.2255 82.2398 83.2845 82.2957C101.733 84.2467 113.605 90.545 113.605 98.4037Z" fill="#82B2FE"/>
<path d="M71.803 20C55.0819 20 41.1477 33.4882 41.1477 50.6553C41.1477 57.1764 43.0983 63.0288 46.8888 68.4912L69.4623 104.089C70.0195 104.98 70.9114 105.37 71.8032 105.37C72.6948 105.37 73.5868 104.98 74.144 104.089L96.8289 68.3797C100.508 63.1404 102.458 57.0093 102.458 50.6553C102.458 33.7668 88.6915 20 71.803 20ZM71.803 64.5896C64.1197 64.5896 57.8688 58.3387 57.8688 50.6553C57.8688 42.972 64.1197 36.7211 71.803 36.7211C79.4864 36.7211 85.7373 42.972 85.7373 50.6553C85.7373 58.3387 79.4864 64.5896 71.803 64.5896Z" fill="#FFB012"/>
<path d="M71.8027 20V36.7211C79.4861 36.7211 85.737 42.972 85.737 50.6553C85.737 58.3387 79.4861 64.5896 71.8027 64.5896V105.37C72.6943 105.37 73.5863 104.98 74.1435 104.089L96.8286 68.3797C100.507 63.1404 102.458 57.0093 102.458 50.6553C102.458 33.7668 88.6912 20 71.8027 20Z" fill="#FBA700"/>
</g>
<defs>
<filter id="filter0_d_14_3839" x="0" y="0" width="143.605" height="155.125" filterUnits="userSpaceOnUse" color-interpolation-filters="sRGB">
<feFlood flood-opacity="0" result="BackgroundImageFix"/>
<feColorMatrix in="SourceAlpha" type="matrix" values="0 0 0 0 0 0 0 0 0 0 0 0 0 0 0 0 0 0 127 0" result="hardAlpha"/>
<feOffset dy="10"/>
<feGaussianBlur stdDeviation="15"/>
<feColorMatrix type="matrix" values="0 0 0 0 0.758615 0 0 0 0 0.317839 0 0 0 0 0 0 0 0 0.12 0"/>
<feBlend mode="normal" in2="BackgroundImageFix" result="effect1_dropShadow_14_3839"/>
<feBlend mode="normal" in="SourceGraphic" in2="effect1_dropShadow_14_3839" result="shape"/>
</filter>
</defs>
</svg>
