<svg width="95" height="95" viewBox="0 0 95 95" fill="none" xmlns="http://www.w3.org/2000/svg">
<path d="M94.4421 29.1292C93.9164 28.4293 93.092 28.0176 92.2168 28.0176H72.3156C70.9865 20.1298 64.1094 14.1016 55.8496 14.1016C47.5898 14.1016 40.7127 20.1298 39.3836 28.0176H22.0842L18.4474 2.39226C18.2528 1.01995 17.0781 0 15.6919 0H2.7832C1.24613 0 0 1.24613 0 2.7832C0 4.32027 1.24613 5.56641 2.7832 5.56641H13.2759L16.9124 31.1912V31.1914V31.1919L21.1138 60.7865C21.5696 63.9773 23.1214 66.9054 25.4923 69.0774C23.6361 70.61 22.4512 72.9281 22.4512 75.5176C22.4512 79.3627 25.0646 82.6071 28.6078 83.5729C28.2284 84.5261 28.0176 85.5638 28.0176 86.6504C28.0176 91.2544 31.7632 95 36.3672 95C40.9712 95 44.7168 91.2544 44.7168 86.6504C44.7168 85.6748 44.547 84.7383 44.2381 83.8672H67.4611C67.1522 84.7383 66.9824 85.6748 66.9824 86.6504C66.9824 91.2544 70.7281 95 75.332 95C79.936 95 83.6816 91.2544 83.6816 86.6504C83.6816 82.0464 79.936 78.3008 75.332 78.3008H30.8008C29.2661 78.3008 28.0176 77.0522 28.0176 75.5176C28.0176 73.9829 29.2661 72.7344 30.8008 72.7344H72.501C78.6813 72.7344 84.1835 68.5841 85.8785 62.6519L94.89 31.576C95.1336 30.7353 94.9677 29.8289 94.4421 29.1292Z" fill="url(#paint0_linear_14_3799)"/>
<path d="M94.4421 29.1292C93.9164 28.4293 93.092 28.0176 92.2168 28.0176H72.3156C70.9865 20.1298 64.1094 14.1016 55.8496 14.1016C47.5898 14.1016 40.7127 20.1298 39.3836 28.0176H22.0842L18.4474 2.39226C18.2528 1.01995 17.0781 0 15.6919 0H2.7832C1.24613 0 0 1.24613 0 2.7832C0 4.32027 1.24613 5.56641 2.7832 5.56641H13.2759L16.9124 31.1912V31.1914V31.1919L21.1138 60.7865C21.5696 63.9773 23.1214 66.9054 25.4923 69.0774C23.6361 70.61 22.4512 72.9281 22.4512 75.5176C22.4512 79.3627 25.0646 82.6071 28.6078 83.5729C28.2284 84.5261 28.0176 85.5638 28.0176 86.6504C28.0176 91.2544 31.7632 95 36.3672 95C40.9712 95 44.7168 91.2544 44.7168 86.6504C44.7168 85.6748 44.547 84.7383 44.2381 83.8672H67.4611C67.1522 84.7383 66.9824 85.6748 66.9824 86.6504C66.9824 91.2544 70.7281 95 75.332 95C79.936 95 83.6816 91.2544 83.6816 86.6504C83.6816 82.0464 79.936 78.3008 75.332 78.3008H30.8008C29.2661 78.3008 28.0176 77.0522 28.0176 75.5176C28.0176 73.9829 29.2661 72.7344 30.8008 72.7344H72.501C78.6813 72.7344 84.1835 68.5841 85.8785 62.6519L94.89 31.576C95.1336 30.7353 94.9677 29.8289 94.4421 29.1292Z" fill="url(#paint1_linear_14_3799)" fill-opacity="0.56"/>
<g filter="url(#filter0_d_14_3799)">
<path d="M55.8496 11.3184C45.107 11.3184 36.3672 20.0582 36.3672 30.8008C36.3672 41.5434 45.107 50.2832 55.8496 50.2832C66.5922 50.2832 75.332 41.5434 75.332 30.8008C75.332 20.0582 66.5922 11.3184 55.8496 11.3184ZM63.3839 29.9857L55.0343 38.3353C54.491 38.8787 53.7787 39.1504 53.0664 39.1504C52.3541 39.1504 51.6418 38.8787 51.0985 38.3351L48.3153 35.5519C47.2284 34.465 47.2284 32.7028 48.3153 31.6159C49.402 30.529 51.1644 30.529 52.2513 31.6159L53.0666 32.431L59.4483 26.0495C60.535 24.9626 62.2974 24.9626 63.3843 26.0495C64.471 27.1366 64.471 28.8987 63.3839 29.9857Z" fill="url(#paint2_linear_14_3799)"/>
</g>
<g filter="url(#filter1_b_14_3799)">
<path d="M55.8496 11.3184C45.107 11.3184 36.3672 20.0582 36.3672 30.8008C36.3672 41.5434 45.107 50.2832 55.8496 50.2832C66.5922 50.2832 75.332 41.5434 75.332 30.8008C75.332 20.0582 66.5922 11.3184 55.8496 11.3184ZM63.3839 29.9857L55.0343 38.3353C54.491 38.8787 53.7787 39.1504 53.0664 39.1504C52.3541 39.1504 51.6418 38.8787 51.0985 38.3351L48.3153 35.5519C47.2284 34.465 47.2284 32.7028 48.3153 31.6159C49.402 30.529 51.1644 30.529 52.2513 31.6159L53.0666 32.431L59.4483 26.0495C60.535 24.9626 62.2974 24.9626 63.3843 26.0495C64.471 27.1366 64.471 28.8987 63.3839 29.9857Z" fill="url(#paint3_linear_14_3799)" fill-opacity="0.36"/>
</g>
<path d="M63.3838 29.9858L55.0342 38.3354C54.4909 38.8788 53.7786 39.1505 53.0663 39.1505C52.354 39.1505 51.6417 38.8788 51.0984 38.3352L48.3152 35.552C47.2283 34.4651 47.2283 32.7029 48.3152 31.616C49.4019 30.529 51.1643 30.529 52.2512 31.616L53.0665 32.4311L59.4482 26.0496C60.5349 24.9626 62.2973 24.9626 63.3842 26.0496C64.4709 27.1367 64.4709 28.8988 63.3838 29.9858Z" fill="white"/>
<defs>
<filter id="filter0_d_14_3799" x="20.3672" y="2.31836" width="70.9648" height="70.9648" filterUnits="userSpaceOnUse" color-interpolation-filters="sRGB">
<feFlood flood-opacity="0" result="BackgroundImageFix"/>
<feColorMatrix in="SourceAlpha" type="matrix" values="0 0 0 0 0 0 0 0 0 0 0 0 0 0 0 0 0 0 127 0" result="hardAlpha"/>
<feOffset dy="7"/>
<feGaussianBlur stdDeviation="8"/>
<feComposite in2="hardAlpha" operator="out"/>
<feColorMatrix type="matrix" values="0 0 0 0 0.616667 0 0 0 0 0.417963 0 0 0 0 0.0205556 0 0 0 0.09 0"/>
<feBlend mode="normal" in2="BackgroundImageFix" result="effect1_dropShadow_14_3799"/>
<feBlend mode="normal" in="SourceGraphic" in2="effect1_dropShadow_14_3799" result="shape"/>
</filter>
<filter id="filter1_b_14_3799" x="22.3672" y="-2.68164" width="66.9648" height="66.9648" filterUnits="userSpaceOnUse" color-interpolation-filters="sRGB">
<feFlood flood-opacity="0" result="BackgroundImageFix"/>
<feGaussianBlur in="BackgroundImageFix" stdDeviation="7"/>
<feComposite in2="SourceAlpha" operator="in" result="effect1_backgroundBlur_14_3799"/>
<feBlend mode="normal" in="SourceGraphic" in2="effect1_backgroundBlur_14_3799" result="shape"/>
</filter>
<linearGradient id="paint0_linear_14_3799" x1="47.5" y1="0" x2="47.5" y2="106" gradientUnits="userSpaceOnUse">
<stop stop-color="#FFC95E"/>
<stop offset="1" stop-color="#FBA700"/>
</linearGradient>
<linearGradient id="paint1_linear_14_3799" x1="47.5" y1="0" x2="47.5" y2="106" gradientUnits="userSpaceOnUse">
<stop stop-color="#FFC95E"/>
<stop offset="1" stop-color="#FBA700"/>
</linearGradient>
<linearGradient id="paint2_linear_14_3799" x1="56" y1="6" x2="55.8496" y2="50.2832" gradientUnits="userSpaceOnUse">
<stop stop-color="#FBA700"/>
<stop offset="1" stop-color="#FB9700"/>
</linearGradient>
<linearGradient id="paint3_linear_14_3799" x1="56" y1="6" x2="55.8496" y2="50.2832" gradientUnits="userSpaceOnUse">
<stop stop-color="#FBA700"/>
<stop offset="1" stop-color="#FB9700"/>
</linearGradient>
</defs>
</svg>
