<svg width="185" height="155" viewBox="0 0 185 155" fill="none" xmlns="http://www.w3.org/2000/svg">
<g filter="url(#filter0_d_14_3810)">
<path d="M146.326 37.4492H37.7548V113.061H146.326V37.4492Z" fill="#B0CFFF"/>
<path d="M146.326 101.429H37.7548V113.061H146.326V101.429Z" fill="#82B2FE"/>
<path d="M146.326 33.5713H37.7548V47.1427H146.326V33.5713Z" fill="#82B2FE"/>
<path d="M76.5307 51.0205H49.3879C48.3172 51.0205 47.4491 51.8886 47.4491 52.9593V111.122H78.4694V52.9593C78.4694 51.8886 77.6014 51.0205 76.5307 51.0205Z" fill="#5592F4"/>
<path d="M152.143 115.001H31.9388C30.8671 115.001 30 114.133 30 113.062C30 111.99 30.8671 111.123 31.9388 111.123H152.143C153.214 111.123 154.081 111.99 154.081 113.062C154.081 114.133 153.214 115.001 152.143 115.001Z" fill="#5592F4"/>
<path d="M72.653 87.8566C71.5813 87.8566 70.7142 86.9895 70.7142 85.9179V82.0403C70.7142 80.9687 71.5813 80.1016 72.653 80.1016C73.7247 80.1016 74.5918 80.9687 74.5918 82.0403V85.9179C74.5918 86.9895 73.7247 87.8566 72.653 87.8566Z" fill="white"/>
<path d="M39.694 43.2653C36.4817 43.2653 33.8777 40.6612 33.8777 37.4489V23.8775C33.8777 21.7359 35.6136 20 37.7552 20H45.5103V37.4489C45.5103 40.6612 42.9063 43.2653 39.694 43.2653Z" fill="#B0CFFF"/>
<path d="M51.3266 43.2653C48.1143 43.2653 45.5103 40.6612 45.5103 37.4489V20H57.1429V37.4489C57.1429 40.6612 54.5389 43.2653 51.3266 43.2653Z" fill="#5592F4"/>
<path d="M62.9591 43.2653C59.7468 43.2653 57.1428 40.6612 57.1428 37.4489V20H68.7755V37.4489C68.7755 40.6612 66.1714 43.2653 62.9591 43.2653Z" fill="#B0CFFF"/>
<path d="M74.5917 43.2653C71.3794 43.2653 68.7754 40.6612 68.7754 37.4489V20H80.408V37.4489C80.408 40.6612 77.804 43.2653 74.5917 43.2653Z" fill="#5592F4"/>
<path d="M86.2243 43.2653C83.012 43.2653 80.408 40.6612 80.408 37.4489V20H92.0406V37.4489C92.0406 40.6612 89.4366 43.2653 86.2243 43.2653Z" fill="#B0CFFF"/>
<path d="M97.8567 43.2653C94.6444 43.2653 92.0404 40.6612 92.0404 37.4489V20H103.673V37.4489C103.673 40.6612 101.069 43.2653 97.8567 43.2653Z" fill="#5592F4"/>
<path d="M109.49 43.2653C106.278 43.2653 103.674 40.6612 103.674 37.4489V20H115.306V37.4489C115.306 40.6612 112.702 43.2653 109.49 43.2653Z" fill="#B0CFFF"/>
<path d="M121.122 43.2653C117.91 43.2653 115.306 40.6612 115.306 37.4489V20H126.939V37.4489C126.939 40.6612 124.335 43.2653 121.122 43.2653Z" fill="#5592F4"/>
<path d="M132.755 43.2653C129.543 43.2653 126.939 40.6612 126.939 37.4489V20H138.571V37.4489C138.571 40.6612 135.967 43.2653 132.755 43.2653Z" fill="#B0CFFF"/>
<path d="M144.387 43.2653C141.175 43.2653 138.571 40.6612 138.571 37.4489V20H146.326C148.468 20 150.204 21.7359 150.204 23.8775V37.4489C150.204 40.6612 147.6 43.2653 144.387 43.2653Z" fill="#5592F4"/>
<path d="M136.633 52.959H88.1633C87.0926 52.959 86.2245 53.8271 86.2245 54.8978V93.6732C86.2245 94.7439 87.0926 95.612 88.1633 95.612H136.633C137.703 95.612 138.571 94.7439 138.571 93.6732V54.8978C138.571 53.8271 137.703 52.959 136.633 52.959Z" fill="white"/>
<path opacity="0.1" d="M126.354 95.612H136.632C137.703 95.612 138.571 94.7439 138.571 93.6732V91.3782L100.152 52.959H86.2241C85.537 52.959 84.9622 53.337 84.6178 53.876L126.354 95.612Z" fill="#5592F4"/>
<path d="M110.958 52.959L138.571 80.5722V72.3467L119.184 52.959H110.958Z" fill="white"/>
<path d="M136.632 97.551H88.1632C86.0257 97.551 84.2856 95.811 84.2856 93.6735V54.8981C84.2856 52.7606 86.0257 51.0205 88.1632 51.0205H136.632C138.77 51.0205 140.51 52.7606 140.51 54.8981V93.6735C140.51 95.811 138.77 97.551 136.632 97.551ZM88.1632 54.8981V93.6735H136.636L136.632 54.8981H88.1632Z" fill="#5592F4"/>
<path d="M72.6527 76.2249H53.2649C52.1943 76.2249 51.3262 75.3568 51.3262 74.2862V56.8372C51.3262 55.7665 52.1943 54.8984 53.2649 54.8984H72.6527C73.7233 54.8984 74.5914 55.7665 74.5914 56.8372V74.2862C74.5914 75.3568 73.7233 76.2249 72.6527 76.2249Z" fill="white"/>
<path opacity="0.1" d="M62.9828 54.8984H53.2649C52.1943 54.8984 51.3262 55.7665 51.3262 56.8372V59.693L67.8581 76.2249H72.6527C73.7233 76.2249 74.5914 75.3568 74.5914 74.2862V66.5071L62.9828 54.8984Z" fill="#5592F4"/>
</g>
<defs>
<filter id="filter0_d_14_3810" x="0" y="0" width="184.081" height="155.001" filterUnits="userSpaceOnUse" color-interpolation-filters="sRGB">
<feFlood flood-opacity="0" result="BackgroundImageFix"/>
<feColorMatrix in="SourceAlpha" type="matrix" values="0 0 0 0 0 0 0 0 0 0 0 0 0 0 0 0 0 0 127 0" result="hardAlpha"/>
<feOffset dy="10"/>
<feGaussianBlur stdDeviation="15"/>
<feColorMatrix type="matrix" values="0 0 0 0 0.758615 0 0 0 0 0.317839 0 0 0 0 0 0 0 0 0.1 0"/>
<feBlend mode="normal" in2="BackgroundImageFix" result="effect1_dropShadow_14_3810"/>
<feBlend mode="normal" in="SourceGraphic" in2="effect1_dropShadow_14_3810" result="shape"/>
</filter>
</defs>
</svg>
