<svg width="155" height="145" viewBox="0 0 155 145" fill="none" xmlns="http://www.w3.org/2000/svg">
<g clip-path="url(#clip0_14_3763)" filter="url(#filter0_d_14_3763)">
<path d="M108.672 77.3438C101.306 77.3438 95.3132 83.3365 95.3132 90.7028C95.3132 98.069 101.306 104.062 108.672 104.062C116.038 104.062 122.031 98.069 122.031 90.7028C122.031 83.3365 116.039 77.3438 108.672 77.3438Z" fill="#3A74D1"/>
<path d="M108.672 80.3125C102.943 80.3125 98.282 84.9734 98.282 90.7029C98.282 96.4324 102.943 101.093 108.672 101.093C114.402 101.093 119.063 96.4324 119.063 90.7029C119.063 84.9734 114.402 80.3125 108.672 80.3125Z" fill="#23529E"/>
<path d="M108.672 83.2803C104.58 83.2803 101.251 86.6097 101.251 90.702C101.251 94.7942 104.58 98.1236 108.672 98.1236C112.765 98.1236 116.094 94.7942 116.094 90.702C116.094 86.6097 112.765 83.2803 108.672 83.2803Z" fill="white"/>
<path d="M47.8142 77.3438C40.448 77.3438 34.4552 83.3365 34.4552 90.7028C34.4552 98.069 40.448 104.062 47.8142 104.062C55.1804 104.062 61.1732 98.069 61.1732 90.7028C61.1732 83.3365 55.1806 77.3438 47.8142 77.3438Z" fill="#3A74D1"/>
<path d="M47.8141 80.3125C42.0848 80.3125 37.4237 84.9734 37.4237 90.7029C37.4237 96.4324 42.0846 101.093 47.8141 101.093C53.5436 101.093 58.2046 96.4324 58.2046 90.7029C58.2046 84.9734 53.5435 80.3125 47.8141 80.3125Z" fill="#23529E"/>
<path d="M47.8141 83.2812C43.7219 83.2812 40.3925 86.6107 40.3925 90.7029C40.3925 94.7952 43.7219 98.1246 47.8141 98.1246C51.9064 98.1246 55.2358 94.7952 55.2358 90.7029C55.2358 86.6107 51.9064 83.2812 47.8141 83.2812Z" fill="white"/>
<path d="M104.109 43.3319C103.92 43.2477 103.714 43.2041 103.507 43.2041H99.0537C98.5141 43.2041 98.017 43.4969 97.7554 43.9687C97.494 44.4408 97.509 45.0173 97.7947 45.475C104.679 56.4937 101.776 71.3831 98.1447 78.8284H78.9851C78.1654 78.8284 77.5007 79.493 77.5007 80.3127V86.25C77.5007 87.0698 78.1654 87.7344 78.9851 87.7344H93.8285C94.0504 87.7344 94.2697 87.6845 94.4699 87.5886L113.054 78.6825C113.49 78.4736 113.797 78.0652 113.877 77.5882C114.066 76.4506 118.355 49.6634 104.109 43.3319Z" fill="#B0CFFF"/>
<path d="M98.1446 78.8274H101.096C104.727 71.3821 107.63 56.4927 100.746 45.474C100.46 45.0163 100.445 44.4398 100.707 43.9678C100.968 43.4959 101.465 43.2031 102.005 43.2031H99.0536C98.5141 43.2031 98.017 43.4959 97.7554 43.9678C97.4939 44.4398 97.509 45.0163 97.7947 45.474C104.679 56.4927 101.776 71.3821 98.1446 78.8274Z" fill="#5592F4"/>
<path d="M86.2389 66.7391C85.3989 62.0498 82.6656 58.6233 78.1157 56.5548C74.3854 54.8595 56.4675 52.9662 44.0322 61.1178C29.7067 70.5085 29.9381 84.5856 30.0139 89.2114C30.0195 89.5488 30.0299 89.8868 30.0204 90.2242C30.0125 90.509 29.9889 90.773 30.085 91.0491C30.2902 91.6395 30.8623 92.046 31.487 92.046H77.5015C77.893 92.046 78.2688 91.8913 78.5467 91.6158C79.2329 90.9354 81.5986 87.1853 83.4865 82.7383C85.2889 78.4928 87.2297 72.2703 86.2389 66.7391Z" fill="#5592F4"/>
<path d="M34.4379 91.0495C34.3419 90.7734 34.3653 90.5094 34.3733 90.2245C34.3828 89.8872 34.3724 89.5491 34.3668 89.2118C34.2911 84.586 34.0597 70.5087 48.3853 61.1182C54.7924 56.9183 62.6551 55.385 69.2828 55.117C62.004 54.82 51.9166 55.9498 44.0319 61.1182C29.7064 70.5089 29.9378 84.586 30.0137 89.2118C30.0193 89.5491 30.0297 89.8872 30.0202 90.2245C30.0122 90.5094 29.9886 90.7734 30.0848 91.0495C30.29 91.6399 30.8618 92.0464 31.4868 92.0464H35.8399C35.2151 92.0462 34.6431 91.6397 34.4379 91.0495Z" fill="#5592F4"/>
<path d="M108.672 74.375C99.6691 74.375 92.3445 81.6996 92.3445 90.7027C92.3445 91.5225 93.0091 92.1871 93.8289 92.1871H96.7976C97.3398 92.1871 97.8387 91.8915 98.0994 91.4162C100.62 86.8167 103.881 84.7654 108.672 84.7654C114.105 84.7654 117.461 88.4133 119.319 91.4731C119.588 91.9164 120.069 92.1871 120.588 92.1871H123.516C124.335 92.1871 125 91.5225 125 90.7027C125 81.6996 117.676 74.375 108.672 74.375Z" fill="#5592F4"/>
<path d="M95.3132 90.7027C95.3132 82.2001 101.847 75.1957 110.157 74.4431C109.668 74.3988 109.173 74.375 108.672 74.375C99.6691 74.375 92.3445 81.6996 92.3445 90.7027C92.3445 91.5225 93.0091 92.1871 93.8289 92.1871H96.7976C95.9777 92.1871 95.3132 91.5225 95.3132 90.7027Z" fill="#5592F4"/>
<path d="M81.9542 47.6562H61.1735C56.2627 47.6562 52.2675 51.6513 52.2675 56.5623V58.0467C52.2675 58.8664 52.9321 59.5311 53.7518 59.5311H81.9542C82.774 59.5311 83.4386 58.8664 83.4386 58.0467V49.1406C83.4386 48.3209 82.774 47.6562 81.9542 47.6562Z" fill="#407FE4"/>
<path d="M56.7204 58.0467V56.5623C56.7204 51.6514 60.7154 47.6562 65.6265 47.6562H61.1735C56.2627 47.6562 52.2675 51.6513 52.2675 56.5623V58.0467C52.2675 58.8664 52.9321 59.5311 53.7518 59.5311H58.2048C57.385 59.5311 56.7204 58.8664 56.7204 58.0467Z" fill="#5592F4"/>
<path d="M102.735 40.2344C101.915 40.2344 101.251 39.5698 101.251 38.75V30.8489L94.7621 28.2535C94.0008 27.949 93.6306 27.0851 93.9351 26.3241C94.2396 25.5632 95.1036 25.1927 95.8644 25.4972L103.286 28.4659C103.85 28.6913 104.219 29.237 104.219 29.8441V38.7502C104.219 39.5698 103.555 40.2344 102.735 40.2344Z" fill="#5592F4"/>
<path d="M90.8603 20.9385C87.5863 20.9385 84.923 23.602 84.923 26.8758C84.923 30.1496 87.5865 32.8131 90.8603 32.8131C94.1343 32.8131 96.7976 30.1496 96.7976 26.8758C96.7976 23.602 94.1343 20.9385 90.8603 20.9385Z" fill="#B0CFFF"/>
<path d="M93.8288 31.3287C90.5549 31.3287 87.8915 28.6652 87.8915 25.3914C87.8915 23.6712 88.6276 22.1202 89.8004 21.0352C87.0308 21.5365 84.923 23.964 84.923 26.8758C84.923 30.1498 87.5865 32.8131 90.8603 32.8131C92.4141 32.8131 93.8296 32.2125 94.8887 31.2321C94.5447 31.2944 94.1909 31.3287 93.8288 31.3287Z" fill="#5592F4"/>
<path d="M99.7662 40.2354H87.8914C87.0716 40.2354 86.407 39.5707 86.407 38.751C86.407 37.9312 87.0716 37.2666 87.8914 37.2666H99.7662C100.586 37.2666 101.251 37.9312 101.251 38.751C101.251 39.5707 100.586 40.2354 99.7662 40.2354Z" fill="#5592F4"/>
<path d="M105.704 37.2666H96.7976V44.6883C96.7976 45.508 97.4622 46.1727 98.282 46.1727H105.704V37.2666Z" fill="#3C79DB"/>
<path d="M114.365 36.4473C114.019 35.9313 113.413 35.694 112.834 35.8103L105.703 37.2659V46.172L112.834 47.6276C113.771 47.8154 114.61 47.0682 114.61 46.1313V37.3015C114.61 36.9995 114.533 36.6981 114.365 36.4473Z" fill="#5592F4"/>
<path d="M50.7827 41.7197H34.455C33.6352 41.7197 32.9706 42.3844 32.9706 43.2041V58.0473C32.9706 58.867 33.6352 59.5317 34.455 59.5317H50.7827C51.6025 59.5317 52.2671 58.867 52.2671 58.0473V43.2039C52.2671 42.3842 51.6025 41.7197 50.7827 41.7197Z" fill="#B0CFFF"/>
<path d="M52.2671 43.2031C52.2671 42.3834 51.6025 41.7188 50.7827 41.7188H34.455C33.6352 41.7188 32.9706 42.3834 32.9706 43.2031V46.1719H52.2671V43.2031Z" fill="#5592F4"/>
<path d="M52.4419 35.7822H32.796C32.0727 35.7822 31.4862 36.3361 31.4862 37.0193V41.9671C31.4862 42.6503 32.0727 43.2041 32.796 43.2041H52.4417C53.1649 43.2041 53.7515 42.6503 53.7515 41.9671V37.0193C53.7515 36.3361 53.1651 35.7822 52.4419 35.7822Z" fill="#3879E2"/>
<path d="M76.017 68.4375H62.658C61.8382 68.4375 61.1736 67.7729 61.1736 66.9531C61.1736 66.1334 61.8382 65.4688 62.658 65.4688H76.017C76.8367 65.4688 77.5013 66.1334 77.5013 66.9531C77.5013 67.7729 76.8367 68.4375 76.017 68.4375Z" fill="#B0CFFF"/>
<path d="M73.048 77.3438H53.7517C52.932 77.3438 52.2673 76.6791 52.2673 75.8594C52.2673 75.0396 52.932 74.375 53.7517 74.375H73.0482C73.868 74.375 74.5326 75.0396 74.5326 75.8594C74.5324 76.6791 73.8678 77.3438 73.048 77.3438Z" fill="#B0CFFF"/>
<path d="M68.5953 86.25H44.8458C44.0261 86.25 43.3615 85.5854 43.3615 84.7656C43.3615 83.9459 44.0261 83.2812 44.8458 83.2812H68.5953C69.415 83.2812 70.0796 83.9459 70.0796 84.7656C70.0796 85.5854 69.415 86.25 68.5953 86.25Z" fill="#B0CFFF"/>
<path d="M53.7515 59.5312H31.4865C30.6667 59.5312 30.0021 58.8666 30.0021 58.0469C30.0021 57.2271 30.6667 56.5625 31.4865 56.5625H53.7515C54.5713 56.5625 55.2359 57.2271 55.2359 58.0469C55.2359 58.8666 54.5713 59.5312 53.7515 59.5312Z" fill="#5592F4"/>
</g>
<defs>
<filter id="filter0_d_14_3763" x="0" y="-5" width="155" height="155" filterUnits="userSpaceOnUse" color-interpolation-filters="sRGB">
<feFlood flood-opacity="0" result="BackgroundImageFix"/>
<feColorMatrix in="SourceAlpha" type="matrix" values="0 0 0 0 0 0 0 0 0 0 0 0 0 0 0 0 0 0 127 0" result="hardAlpha"/>
<feOffset dy="10"/>
<feGaussianBlur stdDeviation="15"/>
<feColorMatrix type="matrix" values="0 0 0 0 0.758615 0 0 0 0 0.317839 0 0 0 0 0 0 0 0 0.12 0"/>
<feBlend mode="normal" in2="BackgroundImageFix" result="effect1_dropShadow_14_3763"/>
<feBlend mode="normal" in="SourceGraphic" in2="effect1_dropShadow_14_3763" result="shape"/>
</filter>
<clipPath id="clip0_14_3763">
<rect width="95" height="95" fill="white" transform="translate(30 15)"/>
</clipPath>
</defs>
</svg>
