<svg width="20" height="20" viewBox="0 0 20 20" fill="none" xmlns="http://www.w3.org/2000/svg">
<path d="M8.13607 4.41265C8.72138 4.25604 9.34296 4.16667 9.99935 4.16667C15.3024 4.16667 18.3327 10 18.3327 10C18.3327 10 17.6419 11.3298 16.3427 12.7196M3.62361 7.31519C2.34535 8.69228 1.66602 10 1.66602 10C1.66602 10 4.69632 15.8333 9.99935 15.8333C10.6677 15.8333 11.3 15.7407 11.8947 15.5787M9.58268 12.4654C8.6792 12.3139 7.94004 11.6777 7.6416 10.8333M10.416 7.53457C11.4629 7.7102 12.2892 8.53646 12.4648 9.58333M2.49935 2.5L17.4993 17.5" stroke="#5F666F" stroke-width="1.5" stroke-linecap="round" stroke-linejoin="round"/>
</svg>
