<svg width="129" height="55" viewBox="0 0 129 55" fill="none" xmlns="http://www.w3.org/2000/svg">
<path d="M33.9347 34.6964C32.5419 37.8116 30.2748 40.4588 27.4067 42.3186C24.5387 44.1785 21.1921 45.1717 17.7706 45.1785C14.349 45.1853 10.9985 44.2054 8.1231 42.3569C5.24765 40.5084 2.97 37.8703 1.56477 34.7606C0.159537 31.6509 -0.313286 28.2024 0.203309 24.8308C0.719904 21.4593 2.20386 18.3087 4.47626 15.7589C6.74866 13.2091 9.71248 11.369 13.0104 10.4603C16.3083 9.5517 19.7995 9.61338 23.063 10.6379L20.9055 17.4665C18.9635 16.8569 16.8862 16.8202 14.9238 17.3608C12.9615 17.9015 11.1979 18.9964 9.84572 20.5137C8.49357 22.0309 7.61057 23.9056 7.30317 25.9117C6.99578 27.9179 7.27713 29.9699 8.11329 31.8203C8.94945 33.6706 10.3047 35.2404 12.0157 36.3403C13.7267 37.4403 15.7204 38.0233 17.7563 38.0193C19.7922 38.0153 21.7835 37.4243 23.4901 36.3176C25.1967 35.2109 26.5457 33.6357 27.3745 31.7821L33.9347 34.6964Z" fill="#242731"/>
<path d="M22.4609 18.6607H41.3786V25.3H22.4609V18.6607Z" fill="#796EFF"/>
<path d="M28.377 30.8148L28.377 13.1362L35.4711 13.1362L35.4711 30.8148L28.377 30.8148Z" fill="#796EFF"/>
<path d="M58.0987 38H50.0341V16.1818H58.0881C60.3111 16.1818 62.2251 16.6186 63.8303 17.4922C65.4425 18.3587 66.6854 19.6087 67.5589 21.2422C68.4325 22.8686 68.8693 24.8146 68.8693 27.0803C68.8693 29.353 68.4325 31.3061 67.5589 32.9396C66.6925 34.5732 65.4531 35.8267 63.8409 36.7003C62.2287 37.5668 60.3146 38 58.0987 38ZM55.3075 33.5043H57.8963C59.1179 33.5043 60.1513 33.2983 60.9964 32.8864C61.8487 32.4673 62.4915 31.7891 62.9247 30.8516C63.3651 29.907 63.5852 28.6499 63.5852 27.0803C63.5852 25.5107 63.3651 24.2607 62.9247 23.3303C62.4844 22.3928 61.8345 21.718 60.9751 21.3061C60.1229 20.8871 59.0717 20.6776 57.8217 20.6776H55.3075V33.5043ZM79.5866 38.3089C77.8679 38.3089 76.3906 37.9574 75.1548 37.2543C73.9261 36.544 72.978 35.5568 72.3104 34.2926C71.6499 33.0213 71.3196 31.5476 71.3196 29.8714C71.3196 28.1882 71.6499 26.7145 72.3104 25.4503C72.978 24.179 73.9261 23.1918 75.1548 22.4886C76.3906 21.7784 77.8679 21.4233 79.5866 21.4233C81.3054 21.4233 82.7791 21.7784 84.0078 22.4886C85.2436 23.1918 86.1918 24.179 86.8523 25.4503C87.5199 26.7145 87.8537 28.1882 87.8537 29.8714C87.8537 31.5476 87.5199 33.0213 86.8523 34.2926C86.1918 35.5568 85.2436 36.544 84.0078 37.2543C82.7791 37.9574 81.3054 38.3089 79.5866 38.3089ZM79.6186 34.3778C80.2436 34.3778 80.7727 34.1861 81.206 33.8026C81.6392 33.419 81.9695 32.8864 82.1967 32.2045C82.4311 31.5227 82.5483 30.7344 82.5483 29.8395C82.5483 28.9304 82.4311 28.1349 82.1967 27.4531C81.9695 26.7713 81.6392 26.2386 81.206 25.8551C80.7727 25.4716 80.2436 25.2798 79.6186 25.2798C78.9723 25.2798 78.4254 25.4716 77.978 25.8551C77.5376 26.2386 77.2003 26.7713 76.9659 27.4531C76.7386 28.1349 76.625 28.9304 76.625 29.8395C76.625 30.7344 76.7386 31.5227 76.9659 32.2045C77.2003 32.8864 77.5376 33.419 77.978 33.8026C78.4254 34.1861 78.9723 34.3778 79.6186 34.3778ZM98.1609 38.3089C96.435 38.3089 94.9542 37.9538 93.7184 37.2436C92.4897 36.5334 91.5451 35.5462 90.8846 34.282C90.2241 33.0107 89.8938 31.5405 89.8938 29.8714C89.8938 28.1953 90.2241 26.7251 90.8846 25.4609C91.5522 24.1896 92.5004 23.1989 93.729 22.4886C94.9648 21.7784 96.4386 21.4233 98.1502 21.4233C99.663 21.4233 100.98 21.6967 102.103 22.2436C103.232 22.7905 104.113 23.5646 104.745 24.5661C105.384 25.5604 105.721 26.7287 105.757 28.071H100.888C100.789 27.233 100.505 26.576 100.036 26.1001C99.5742 25.6243 98.9705 25.3864 98.2248 25.3864C97.6211 25.3864 97.092 25.5568 96.6374 25.8977C96.1829 26.2315 95.8278 26.7287 95.5721 27.3892C95.3235 28.0426 95.1992 28.8523 95.1992 29.8182C95.1992 30.7841 95.3235 31.6009 95.5721 32.2685C95.8278 32.929 96.1829 33.4297 96.6374 33.7706C97.092 34.1044 97.6211 34.2713 98.2248 34.2713C98.7077 34.2713 99.1339 34.1683 99.5032 33.9624C99.8796 33.7564 100.189 33.4545 100.43 33.0568C100.672 32.652 100.824 32.1619 100.888 31.5866H105.757C105.707 32.9361 105.37 34.1151 104.745 35.1236C104.127 36.1321 103.257 36.9169 102.135 37.478C101.02 38.032 99.695 38.3089 98.1609 38.3089ZM117.659 21.6364V25.4716H107.336V21.6364H117.659ZM109.499 17.7159H114.708V32.8544C114.708 33.174 114.758 33.4332 114.857 33.6321C114.964 33.8239 115.117 33.9624 115.316 34.0476C115.514 34.1257 115.752 34.1648 116.029 34.1648C116.228 34.1648 116.438 34.147 116.658 34.1115C116.885 34.0689 117.056 34.0334 117.169 34.005L117.958 37.7656C117.709 37.8366 117.357 37.9254 116.903 38.032C116.455 38.1385 115.919 38.206 115.294 38.2344C114.073 38.2912 113.025 38.1491 112.151 37.8082C111.285 37.4602 110.621 36.9205 110.159 36.1889C109.705 35.4574 109.485 34.5376 109.499 33.4297V17.7159ZM123.247 38.3089C122.48 38.3089 121.823 38.0391 121.276 37.4993C120.736 36.9595 120.47 36.3061 120.477 35.5391C120.47 34.7862 120.736 34.1435 121.276 33.6108C121.823 33.071 122.48 32.8011 123.247 32.8011C123.971 32.8011 124.611 33.071 125.165 33.6108C125.726 34.1435 126.01 34.7862 126.017 35.5391C126.01 36.0504 125.875 36.5156 125.612 36.9347C125.356 37.3537 125.019 37.6875 124.6 37.9361C124.188 38.1847 123.737 38.3089 123.247 38.3089Z" fill="#242731"/>
</svg>
