<svg width="16" height="16" viewBox="0 0 16 16" fill="none" xmlns="http://www.w3.org/2000/svg">
<path d="M13.8349 6.61564C13.5881 6.60502 13.3587 6.67777 13.1725 6.80803C13.1209 6.84415 13.0475 6.82042 13.027 6.7608C12.882 6.3392 12.4819 6.03626 12.0111 6.03626C11.7476 6.03626 11.5064 6.13133 11.3195 6.28878C11.0971 5.82192 11.1477 5.73336 10.5961 5.73336C10.5919 5.73336 10.421 5.63835 10.4168 5.63839C10.1399 5.08814 9.63783 4.77773 9.09534 4.74486C8.62426 4.71631 8.18788 4.9961 8.01504 5.41519C7.99151 5.47224 7.92139 5.49307 7.87097 5.45752C7.62563 5.28449 7.32646 5.18269 7.0034 5.18269C6.81832 5.18269 6.60897 5.18401 6.44517 5.24505C6.40316 5.2607 6.35645 5.24544 6.33124 5.20835C6.13802 4.92418 5.84448 4.7374 5.4749 4.7374C4.88171 4.7374 4.43303 5.21827 4.43303 5.81146C4.43303 5.83885 4.4341 5.86599 4.43613 5.89284C4.43992 5.94255 4.37151 5.98562 4.32239 5.99396C3.93707 6.0595 3.61449 6.30897 3.44815 6.64893C3.42069 6.70507 3.34909 6.72098 3.30032 6.68189C3.07323 6.49981 2.74708 6.39766 2.42891 6.41826C1.82835 6.45715 1.40495 6.91053 1.36355 7.51093C1.31468 8.22002 1.81103 8.77825 2.50969 8.77825C3.03907 8.77825 13.2679 8.76276 13.7874 8.76276C14.3911 8.76276 14.8784 8.2648 14.861 7.65725C14.8452 7.09899 14.3929 6.63966 13.8349 6.61564V6.61564Z" fill="#FFE07D"/>
<path d="M9.18909 4.6483C8.71801 4.61975 8.15286 4.89954 7.98002 5.31866C7.95648 5.37567 7.8864 5.39653 7.83598 5.36099C7.59064 5.18796 7.29147 5.08616 6.96841 5.08616C6.78333 5.08616 6.60614 5.11967 6.44237 5.18071C6.40036 5.19636 6.35368 5.1811 6.32847 5.14401C6.13525 4.85981 5.80952 4.67303 5.43994 4.67303C4.84675 4.67303 4.36588 5.15389 4.36588 5.74709C4.36588 5.77448 4.36695 5.80162 4.36901 5.82847C4.37281 5.87818 4.33662 5.92122 4.28749 5.92959C3.90217 5.99513 3.5796 6.2446 3.41322 6.58453C3.3858 6.64054 3.31433 6.65677 3.26568 6.61775C3.18233 6.55088 2.8971 6.32518 2.42615 6.35386C1.82546 6.39047 1.33065 6.87787 1.2964 7.47872C1.2943 7.51562 1.27991 7.64098 1.33136 7.86649C1.33197 7.86913 2.12817 8.77823 2.50692 8.77823C2.59191 8.77823 2.9273 8.77785 3.43212 8.77717C2.75256 8.75476 2.23682 8.53968 2.28476 7.84441C2.28482 7.8435 2.20804 7.57591 2.39434 7.31837C2.59932 7.03504 2.80384 7.00226 2.91491 6.99505C3.19557 6.97686 3.41931 7.08909 3.63301 7.23254C3.72788 7.29622 3.85488 7.26673 3.91386 7.16886C4.07772 6.89706 4.34647 6.69566 4.66409 6.62065C4.75413 6.59937 4.81668 6.51737 4.81659 6.42485V6.42311C4.81659 5.82992 5.0328 5.61413 5.38625 5.47441C5.7094 5.34667 6.12843 5.57859 6.32464 5.83452C6.3748 5.89994 6.46124 5.92373 6.53973 5.89852C6.68501 5.85184 6.83986 5.82654 7.00064 5.82654C7.28661 5.82654 7.55388 5.90631 7.78164 6.04465C7.8768 6.10243 7.99917 6.07076 8.0538 5.97376C8.26303 5.60231 8.6967 5.23608 9.52339 5.25798C9.88096 5.26744 10.1097 5.35114 10.414 5.63837C10.3124 5.01418 9.71832 4.68037 9.18909 4.6483V4.6483Z" fill="#FFD064"/>
<path d="M10.544 5.53357C10.5398 5.53357 10.4214 5.63833 10.4171 5.63836C10.4166 5.63527 10.4159 5.63231 10.4154 5.62921L9.85992 6.23116C9.65887 6.44901 9.66789 6.78421 9.8801 6.981C10.0824 7.16859 10.3991 7.16431 10.6054 6.97122L11.4 6.22752C11.3723 6.24674 11.3455 6.26712 11.3198 6.28879C11.0974 5.82192 11.0956 5.53357 10.544 5.53357Z" fill="#FFD064"/>
<path d="M11.188 14.0881L8.0194 13.7662L5.2967 14.0881L5.00696 14.41V14.6222C5.00696 14.7357 5.0998 14.8285 5.21325 14.8285H10.3832C10.6499 14.8285 11.188 14.8377 11.188 14.571V14.0881Z" fill="#E27F86"/>
<path d="M5.29625 14.0881L5.06475 13.7662L4.81335 14.0881V14.571C4.81335 14.8377 5.02956 15.0539 5.29625 15.0539H10.7047C10.9714 15.0539 11.1876 14.8377 11.1876 14.571H5.45583C5.36666 14.571 5.29448 14.4985 5.29487 14.4094L5.29625 14.0881Z" fill="#DF646E"/>
<path d="M9.51219 13.6679H5.72067C3.1224 13.6679 1.92233 12.6994 1.49667 10.7573L1.24219 8.58133H1.63057L7.93357 8.2594L14.9243 8.58133L15.1144 9.70809L14.9917 10.7573C14.9131 11.4291 14.6609 12.0425 14.283 12.5545C13.5933 13.4891 11.046 13.7625 9.51219 13.6679V13.6679Z" fill="#E27F86"/>
<path d="M15.2408 8.58133L7.92818 8.2594L1.62518 8.58133H1.2368H0.753906L1.00839 10.7573C1.2304 12.6553 2.83851 14.0864 4.7495 14.0864H11.2452C12.4818 14.0864 13.5914 13.487 14.2808 12.5498C13.6536 13.0112 12.8805 13.2815 12.05 13.2815H5.06734C3.43405 13.2815 2.05956 12.0584 1.86982 10.4362L1.82668 10.0674C1.8043 9.87611 1.95381 9.70809 2.14642 9.70809H15.109L15.2408 8.58133Z" fill="#DF646E"/>
<path d="M15.4698 8.58338H0.532137C0.362962 8.58338 0.328033 8.39444 0.322882 8.37413C0.322882 8.37413 0.280741 8.08622 0.515783 7.8432C0.51955 7.83931 0.526665 7.84294 0.532137 7.84294H15.4698C15.7631 7.84294 16.0009 8.08075 16.0009 8.37413C16.0009 8.37953 16.0009 8.38494 16.0007 8.39032C15.9922 8.67619 15.4787 8.58338 15.4698 8.58338Z" fill="#DF646E"/>
<path d="M15.9839 8.39024H1.04628C0.752901 8.39024 0.515091 8.15242 0.515091 7.85904C0.515091 7.85386 0.515702 7.84887 0.515863 7.84372C0.229666 7.8519 0 8.08594 0 8.37414C0 8.66752 0.237811 8.90533 0.531187 8.90533H15.4688C15.757 8.90533 15.9911 8.67566 15.9992 8.38946C15.9941 8.38959 15.9891 8.39024 15.9839 8.39024Z" fill="#DC4955"/>
<path d="M10.3741 6.52659C10.3494 6.49166 10.1196 6.2987 10.3183 6.08297L14.7025 1.3227C14.7414 1.27019 15.1222 0.878302 15.421 1.02588C15.4948 1.06238 15.5642 1.11141 15.6258 1.17306C15.9366 1.48386 15.9272 1.99061 15.6049 2.28959L10.8805 6.70414C10.8553 6.7277 10.8284 6.74837 10.8001 6.76611C10.5997 6.89221 10.3741 6.52659 10.3741 6.52659V6.52659Z" fill="#DDEBFD"/>
<path d="M10.7622 6.73738C10.4177 6.39285 10.448 6.27135 10.733 5.98638L15.1172 1.2261C15.2031 1.13345 15.3063 1.06681 15.417 1.02605C15.1183 0.878512 14.7452 0.935591 14.5055 1.19391L10.1213 5.95418C9.92265 6.16988 9.93572 6.50562 10.1506 6.70518C10.3301 6.87194 10.5958 6.89213 10.7963 6.76606C10.7847 6.75698 10.7728 6.74797 10.7622 6.73738Z" fill="#BED9FD"/>
</svg>
