<svg width="18" height="16" viewBox="0 0 18 14" fill="none" xmlns="http://www.w3.org/2000/svg">
<path d="M14.6896 10.068H13.5439C13.5718 10.266 13.5863 10.4679 13.5863 10.6729C13.5863 10.851 13.5755 11.0278 13.554 11.2029C13.5843 11.1996 13.6151 11.1977 13.6463 11.1977C13.906 11.1977 14.1385 11.3164 14.2925 11.5023C14.3951 11.3784 14.5325 11.2844 14.6896 11.2355V10.068Z" fill="#FEDF30"/>
<path d="M9.08944 4.90413C9.35477 4.90413 9.60265 5.04732 9.73632 5.27784L9.76673 5.33029L9.79714 5.27784C9.93084 5.04732 10.1787 4.90413 10.444 4.90413C10.7093 4.90413 10.9572 5.04732 11.0909 5.27784L11.1213 5.33029L11.1517 5.27784C11.2854 5.04732 11.5333 4.90413 11.7986 4.90413C12.0639 4.90413 12.3118 5.04732 12.4455 5.27784L12.4759 5.33029L12.5063 5.27784C12.64 5.04732 12.8879 4.90413 13.1532 4.90413C13.4185 4.90413 13.6664 5.04732 13.8 5.27784L13.8304 5.33029L13.8608 5.27784C13.9945 5.04732 14.2424 4.90413 14.5077 4.90413C14.773 4.90413 15.0209 5.04732 15.1546 5.27784L15.185 5.33029L15.2154 5.27784C15.3491 5.04732 15.597 4.90413 15.8623 4.90413C16.1276 4.90413 16.3755 5.04732 16.5092 5.27784L16.5396 5.33026L16.57 5.2778C16.7037 5.04728 16.9516 4.90409 17.2169 4.90409C17.2219 4.90409 17.2268 4.90476 17.2318 4.90487C16.6086 3.61182 15.0177 2.69241 13.153 2.69241C11.2883 2.69241 9.69743 3.61185 9.07422 4.90487C9.07949 4.90476 9.08438 4.90413 9.08944 4.90413V4.90413Z" fill="#F6A96C"/>
<path d="M9.0892 4.90413C9.35452 4.90413 9.60241 5.04732 9.73607 5.27784L9.76648 5.33029L9.79689 5.27784C9.93059 5.04732 10.1785 4.90413 10.4438 4.90413C10.5117 4.90413 10.5784 4.91366 10.6424 4.93148C11.1683 3.81239 12.4165 2.96807 13.9433 2.74852C13.687 2.71168 13.4229 2.69241 13.153 2.69241C11.2883 2.69241 9.69743 3.61185 9.07422 4.90487C9.07925 4.90476 9.08413 4.90413 9.0892 4.90413V4.90413Z" fill="#EA9B58"/>
<path d="M12.1428 3.87107C11.9971 3.87107 11.8791 3.75302 11.8791 3.6074V2.74655C11.8791 2.60094 11.9971 2.48288 12.1428 2.48288C12.2884 2.48288 12.4064 2.60094 12.4064 2.74655V3.6074C12.4064 3.75302 12.2884 3.87107 12.1428 3.87107Z" fill="#FFBD86"/>
<path d="M13.1514 3.87107C13.0057 3.87107 12.8877 3.75302 12.8877 3.6074V2.74655C12.8877 2.60094 13.0057 2.48288 13.1514 2.48288C13.297 2.48288 13.415 2.60094 13.415 2.74655V3.6074C13.415 3.75302 13.297 3.87107 13.1514 3.87107Z" fill="#FFBD86"/>
<path d="M14.1657 3.87107C14.0201 3.87107 13.902 3.75302 13.902 3.6074V2.74655C13.902 2.60094 14.0201 2.48288 14.1657 2.48288C14.3114 2.48288 14.4294 2.60094 14.4294 2.74655V3.6074C14.4294 3.75302 14.3114 3.87107 14.1657 3.87107Z" fill="#FFBD86"/>
<path d="M17.2147 6.40004C16.9493 6.40004 16.7015 6.25685 16.5678 6.02633L16.5374 5.97388L16.507 6.0263C16.3732 6.25682 16.1254 6.4 15.8601 6.4C15.5948 6.4 15.3469 6.25682 15.2132 6.0263L15.1828 5.97385L15.1524 6.0263C15.0187 6.25682 14.7708 6.4 14.5055 6.4C14.2402 6.4 13.9923 6.25682 13.8587 6.0263L13.8282 5.97385L13.7978 6.0263C13.6641 6.25682 13.4163 6.4 13.151 6.4C12.8856 6.4 12.6377 6.25682 12.5041 6.0263L12.4737 5.97385L12.4431 6.02633C12.3094 6.25685 12.0615 6.40004 11.7962 6.40004C11.5309 6.40004 11.283 6.25685 11.1493 6.02633L11.1189 5.97388L11.0885 6.02633C10.9899 6.19635 10.8321 6.31915 10.6442 6.37209L10.5474 6.39934L10.6401 6.43832C11.3541 6.73863 11.992 7.19846 12.4848 7.76816L12.4953 7.78033H16.5899L17.2589 6.39779C17.2441 6.39863 17.2296 6.40004 17.2147 6.40004V6.40004Z" fill="#7CA1B1"/>
<path d="M17.2157 4.86893C16.9261 4.86893 16.6739 5.0265 16.5384 5.26015C16.4028 5.0265 16.1506 4.86893 15.861 4.86893C15.5715 4.86893 15.3192 5.0265 15.1837 5.26015C15.0482 5.0265 14.796 4.86893 14.5064 4.86893C14.2168 4.86893 13.9646 5.0265 13.8291 5.26015C13.6936 5.0265 13.4413 4.86893 13.1518 4.86893C12.8622 4.86893 12.61 5.0265 12.4744 5.26015C12.3389 5.0265 12.0867 4.86893 11.7971 4.86893C11.5075 4.86893 11.2553 5.0265 11.1198 5.26015C10.9843 5.0265 10.7321 4.86893 10.4425 4.86893C10.1529 4.86893 9.90068 5.0265 9.76515 5.26015C9.62962 5.0265 9.37741 4.86893 9.08783 4.86893C8.6553 4.86893 8.30469 5.21954 8.30469 5.65207C8.30469 5.78812 8.33942 5.91606 8.40045 6.02754C8.45681 6.02578 8.51334 6.0249 8.57001 6.0249C9.28966 6.0249 9.97426 6.16633 10.5935 6.42037C10.8183 6.37625 11.0084 6.23587 11.1197 6.04399C11.2552 6.27764 11.5075 6.43521 11.797 6.43521C12.0866 6.43521 12.3388 6.27764 12.4744 6.04399C12.6099 6.27764 12.8621 6.43521 13.1517 6.43521C13.4412 6.43521 13.6935 6.27764 13.829 6.04399C13.9645 6.27764 14.2167 6.43521 14.5063 6.43521C14.7959 6.43521 15.0481 6.27764 15.1836 6.04399C15.3191 6.27764 15.5714 6.43521 15.861 6.43521C16.1505 6.43521 16.4028 6.27764 16.5383 6.04399C16.6738 6.27764 16.926 6.43521 17.2156 6.43521C17.6481 6.43521 17.9987 6.0846 17.9987 5.65207C17.9988 5.21954 17.6482 4.86893 17.2157 4.86893V4.86893Z" fill="#FED2A4"/>
<path d="M13.1922 8.87027L13.2139 8.91959C13.3815 9.30065 13.4926 9.69693 13.5461 10.1031H15.2481C15.5582 10.1031 15.8095 9.85176 15.8095 9.54172V8.87027H13.1922Z" fill="#E8B800"/>
<path d="M17.814 7.74524H12.4652C12.7712 8.09388 13.0237 8.48422 13.2113 8.9055H17.814C17.9174 8.9055 18.0011 8.82172 18.0011 8.71836V7.93238C18.0011 7.82902 17.9174 7.74524 17.814 7.74524Z" fill="#FEDF30"/>
<path d="M3.02936 7.57538H1.80543C1.77924 7.25992 1.51532 7.01193 1.19308 7.01193C0.853469 7.01193 0.578125 7.28724 0.578125 7.62689C0.578125 7.77373 0.629769 7.90842 0.715656 8.01417C0.969379 8.05927 1.17118 8.27221 1.19311 8.5362L1.19579 8.56844H2.45202V8.51138C2.45202 8.46888 2.48662 8.43425 2.52916 8.43425H3.02929V7.57538H3.02936Z" fill="#FFBD86"/>
<path d="M4.18037 8.43416C4.3968 8.07078 4.66416 7.73704 4.97354 7.44113H3.10909C3.04707 7.44113 2.9968 7.49141 2.9968 7.55342V8.43416H4.18037Z" fill="#FE7701"/>
<path d="M16.9602 12.372C16.9702 12.3624 16.9806 12.3535 16.9904 12.3436C17.4536 11.8805 17.6425 11.2472 17.5578 10.645C17.5511 10.5975 17.514 10.5604 17.4666 10.5537C16.8643 10.4691 16.2311 10.6579 15.7679 11.1211C15.4189 11.4702 15.2258 11.9159 15.188 12.372H16.9602Z" fill="#46CC8D"/>
<path d="M16.1104 12.372L16.794 11.6885C16.8969 11.5855 16.8969 11.4185 16.794 11.3156C16.691 11.2126 16.524 11.2126 16.4211 11.3156L15.3647 12.372H16.1104Z" fill="#09A755"/>
<path d="M15.7473 12.372C15.7903 12.2686 15.8142 12.1553 15.8142 12.0364C15.8142 11.5538 15.4229 11.1625 14.9403 11.1625C14.4577 11.1625 14.0664 11.5538 14.0664 12.0364C14.0664 12.1553 14.0902 12.2687 14.1333 12.372H15.7473Z" fill="#FD4755"/>
<path d="M3.05665 12.3721C3.09969 12.2687 3.12352 12.1554 3.12352 12.0365C3.12352 11.5539 2.73227 11.1626 2.24964 11.1626C1.76702 11.1626 1.37576 11.5539 1.37576 12.0365C1.37576 12.1554 1.3996 12.2688 1.44263 12.3721H3.05665Z" fill="#FD4755"/>
<path d="M8.56666 5.98978C6.65163 5.98978 4.98558 6.97795 4.1291 8.43427H7.12888C7.92432 8.43427 8.57148 9.08143 8.57148 9.87688C8.57148 10.673 7.92531 11.3206 7.13106 11.3206C6.97377 11.3206 6.81697 11.2945 6.66503 11.2429L3.54308 10.1827C3.52501 10.3438 3.51562 10.5073 3.51562 10.6729C3.51562 11.2723 3.63772 11.8452 3.85921 12.3721H13.2742C13.4956 11.8452 13.6177 11.2723 13.6177 10.6729C13.6177 8.08647 11.3563 5.98978 8.56666 5.98978V5.98978Z" fill="#FE9738"/>
<path d="M6.04197 8.39913C6.7575 7.20714 8.01809 6.33501 9.51146 6.07232C9.20465 6.01836 8.88814 5.98978 8.56439 5.98978C6.66487 5.98978 5.01053 6.96214 4.14804 8.39913H6.04197Z" fill="#FE860A"/>
<path d="M3.53936 10.2186C3.52382 10.3681 3.51562 10.5195 3.51562 10.6728C3.51562 11.2723 3.63772 11.8452 3.85921 12.372H5.75333C5.55442 11.8989 5.43601 11.3885 5.41386 10.8551L3.53936 10.2186Z" fill="#FE860A"/>
<path d="M12.9653 12.3721C13.0083 12.2687 13.0322 12.1554 13.0322 12.0365C13.0322 11.5539 12.6409 11.1626 12.1583 11.1626C11.6757 11.1626 11.2844 11.5539 11.2844 12.0365C11.2844 12.1554 11.3083 12.2688 11.3513 12.3721H12.9653Z" fill="#FD4755"/>
<path d="M14.4553 12.3721C14.4983 12.2687 14.5221 12.1554 14.5221 12.0365C14.5221 11.5539 14.1309 11.1626 13.6483 11.1626C13.1656 11.1626 12.7744 11.5539 12.7744 12.0365C12.7744 12.1554 12.7982 12.2688 12.8412 12.3721H14.4553Z" fill="#E41F2D"/>
<path d="M4.32933 12.3721C4.37236 12.2687 4.3962 12.1554 4.3962 12.0365C4.3962 11.5539 4.00494 11.1626 3.52232 11.1626C3.03969 11.1626 2.64844 11.5539 2.64844 12.0365C2.64844 12.1554 2.67227 12.2688 2.7153 12.3721H4.32933Z" fill="#E41F2D"/>
<path d="M2.4512 8.53324H1.2273C1.20111 8.21775 0.937195 7.96976 0.614953 7.96976C0.275309 7.96976 0 8.2451 0 8.58471C0 8.77547 0.0869062 8.94594 0.223242 9.05872C0.0869062 9.17154 0 9.34198 0 9.53277C0 9.87238 0.275309 10.1477 0.614953 10.1477C0.937195 10.1477 1.20108 9.89973 1.2273 9.58424H2.4512V8.53324Z" fill="#FED2A4"/>
<path d="M6.65651 11.2762L2.49025 9.86141C2.44468 9.84595 2.41406 9.8032 2.41406 9.7551V8.51137C2.41406 8.44935 2.46434 8.39908 2.52635 8.39908H7.13164C7.9478 8.39908 8.6094 9.06069 8.6094 9.87685C8.6094 10.889 7.6149 11.6016 6.65651 11.2762V11.2762Z" fill="#FE7701"/>
<path d="M7.80566 10.674L3.6394 9.25924C3.59384 9.24377 3.56321 9.20102 3.56321 9.15293V8.39914H2.52635C2.46434 8.39914 2.41406 8.44941 2.41406 8.51143V9.75513C2.41406 9.80322 2.44468 9.84597 2.49025 9.86144L6.65651 11.2762C7.2993 11.4945 7.95785 11.2454 8.32218 10.7526C8.15286 10.7572 7.9787 10.7327 7.80566 10.674V10.674Z" fill="#F46700"/>
<path d="M16.998 13.7012H1.60463C1.5487 13.7012 1.49568 13.6762 1.46014 13.633L0.645323 12.6429C0.544847 12.5208 0.631682 12.3368 0.789815 12.3368H17.8129C17.971 12.3368 18.0579 12.5208 17.9574 12.6429L17.1426 13.633C17.107 13.6762 17.054 13.7012 16.998 13.7012Z" fill="#FAC600"/>
<path d="M3.73289 13.633L2.91808 12.6429C2.8176 12.5208 2.90444 12.3368 3.06257 12.3368H0.785146C0.627013 12.3368 0.540177 12.5208 0.640654 12.6429L1.45547 13.633C1.49101 13.6762 1.54403 13.7013 1.59996 13.7013H3.87735C3.82145 13.7013 3.76844 13.6762 3.73289 13.633Z" fill="#E8B800"/>
<path d="M8.09177 0.298615H6.50328C6.35766 0.298615 6.23961 0.416669 6.23961 0.562286C6.23961 0.707904 6.35766 0.825958 6.50328 0.825958H8.09177C8.32461 0.825958 8.51403 1.01538 8.51403 1.24822C8.51403 1.48106 8.32461 1.67048 8.09177 1.67048H6.10616C5.58254 1.67048 5.15656 2.09647 5.15656 2.62009C5.15656 3.1437 5.58254 3.56969 6.10616 3.56969H7.00161C7.23836 3.56969 7.43094 3.76231 7.43094 3.99906V4.61643C7.43094 4.76205 7.54899 4.88011 7.69461 4.88011C7.84023 4.88011 7.95828 4.76205 7.95828 4.61643V3.99906C7.95828 3.47154 7.5291 3.04235 7.00161 3.04235H6.10616C5.87332 3.04235 5.6839 2.85293 5.6839 2.62009C5.6839 2.38725 5.87332 2.19783 6.10616 2.19783H8.09177C8.61538 2.19783 9.04137 1.77184 9.04137 1.24822C9.04137 0.724603 8.61538 0.298615 8.09177 0.298615V0.298615Z" fill="#FFE5C2"/>
<path d="M4.41914 6.69315C4.27352 6.69315 4.15547 6.5751 4.15547 6.42948V5.81685C4.15547 5.58302 3.96524 5.39279 3.73141 5.39279H2.8428C2.32207 5.39279 1.89844 4.96916 1.89844 4.44843C1.89844 3.92769 2.32207 3.50406 2.8428 3.50406H3.88174C4.02736 3.50406 4.14541 3.62211 4.14541 3.76773C4.14541 3.91335 4.02736 4.0314 3.88174 4.0314H2.8428C2.61285 4.0314 2.42578 4.21847 2.42578 4.44843C2.42578 4.67838 2.61285 4.86545 2.8428 4.86545H3.73141C4.25602 4.86545 4.68281 5.29225 4.68281 5.81685V6.42948C4.68281 6.57513 4.56476 6.69315 4.41914 6.69315V6.69315Z" fill="#FED2A4"/>
<path d="M10.5415 9.15204C10.6872 9.15204 10.8052 9.03399 10.8052 8.88837C10.8052 8.74274 10.6872 8.62469 10.5415 8.62469C10.3959 8.62469 10.2779 8.74274 10.2779 8.88837C10.2779 9.03399 10.3959 9.15204 10.5415 9.15204Z" fill="#FE7701"/>
<path d="M11.881 9.76764C12.0266 9.76764 12.1447 9.64959 12.1447 9.50397C12.1447 9.35835 12.0266 9.2403 11.881 9.2403C11.7354 9.2403 11.6173 9.35835 11.6173 9.50397C11.6173 9.64959 11.7354 9.76764 11.881 9.76764Z" fill="#FE7701"/>
<path d="M12.6777 10.7094C12.8234 10.7094 12.9414 10.5913 12.9414 10.4457C12.9414 10.3001 12.8234 10.182 12.6777 10.182C12.5321 10.182 12.4141 10.3001 12.4141 10.4457C12.4141 10.5913 12.5321 10.7094 12.6777 10.7094Z" fill="#FE7701"/>
<path d="M11.5529 8.50009C11.6985 8.50009 11.8166 8.38204 11.8166 8.23642C11.8166 8.0908 11.6985 7.97275 11.5529 7.97275C11.4073 7.97275 11.2892 8.0908 11.2892 8.23642C11.2892 8.38204 11.4073 8.50009 11.5529 8.50009Z" fill="#FE7701"/>
<path d="M10.6512 10.8904C10.7968 10.8904 10.9149 10.7724 10.9149 10.6268C10.9149 10.4811 10.7968 10.3631 10.6512 10.3631C10.5056 10.3631 10.3875 10.4811 10.3875 10.6268C10.3875 10.7724 10.5056 10.8904 10.6512 10.8904Z" fill="#FE7701"/>
</svg>
