<svg width="60" height="56" viewBox="0 0 39 56" fill="none" xmlns="http://www.w3.org/2000/svg">
<path d="M29.8595 36.4044L28.6007 29.691H30.5913V27.6988H28.2272L27.8536 25.7065H20.0541V27.6987H22.1729L23.8936 40.3167H18.2696L16.3562 35.993C17.311 35.4936 17.9646 34.4938 17.9646 33.3437C17.9646 31.6959 16.6239 30.3553 14.9761 30.3553H12.6404V19.707H0V32.3474H3.3318V36.332H6.76972C5.47579 37.5986 4.67141 39.3633 4.67141 41.3127V42.3088H6.76381C7.22653 44.5795 9.23897 46.2934 11.6443 46.2934C14.0497 46.2934 16.0621 44.5795 16.5249 42.3088H24.1389C24.6016 44.5795 26.614 46.2934 29.0193 46.2934C31.7657 46.2934 34.0001 44.0591 34.0001 41.3127C34 38.8528 32.207 36.805 29.8595 36.4044ZM1.99219 30.3552V21.6992H10.6482V30.3552H1.99219ZM5.32399 34.3398V32.3474H14.9761C15.5254 32.3474 15.9723 32.7943 15.9723 33.3436C15.9723 33.8929 15.5254 34.3398 14.9761 34.3398H5.32399ZM11.6443 36.332H14.3276L16.091 40.3166H6.76361C7.22626 38.0458 9.23884 36.332 11.6443 36.332ZM11.6443 44.3013C10.3456 44.3013 9.23824 43.4683 8.82705 42.3088H14.4615C14.0503 43.4683 12.943 44.3013 11.6443 44.3013V44.3013ZM26.2003 27.6987L27.8455 36.4731C26.9679 36.686 26.1808 37.1316 25.5529 37.7412L24.1835 27.6988H26.2003V27.6987ZM29.0193 44.3013C27.3714 44.3013 26.0308 42.9606 26.0308 41.3127C26.0308 39.6648 27.3714 38.3242 29.0193 38.3242C30.6671 38.3242 32.0078 39.6648 32.0078 41.3127C32.0078 42.9606 30.6672 44.3013 29.0193 44.3013Z" fill="#FFD4CC"/>
<g filter="url(#filter0_d_1_1978)">
<circle cx="31.1713" cy="19.8315" r="7.83146" fill="#FF6222"/>
</g>
<path d="M34.8554 17.0674L30.0393 22.1348L27.9453 19.9316" stroke="white" stroke-width="1.54" stroke-linecap="round" stroke-linejoin="round"/>
<defs>
<filter id="filter0_d_1_1978" x="3.33984" y="0" width="55.6629" height="55.6629" filterUnits="userSpaceOnUse" color-interpolation-filters="sRGB">
<feFlood flood-opacity="0" result="BackgroundImageFix"/>
<feColorMatrix in="SourceAlpha" type="matrix" values="0 0 0 0 0 0 0 0 0 0 0 0 0 0 0 0 0 0 127 0" result="hardAlpha"/>
<feOffset dy="8"/>
<feGaussianBlur stdDeviation="10"/>
<feColorMatrix type="matrix" values="0 0 0 0 1 0 0 0 0 0.384314 0 0 0 0 0.133333 0 0 0 0.25 0"/>
<feBlend mode="normal" in2="BackgroundImageFix" result="effect1_dropShadow_1_1978"/>
<feBlend mode="normal" in="SourceGraphic" in2="effect1_dropShadow_1_1978" result="shape"/>
</filter>
</defs>
</svg>
