<svg width="62" height="56" viewBox="0 0 41 56" fill="none" xmlns="http://www.w3.org/2000/svg">
<path d="M24.437 48.8409C24.2159 49.0607 23.9168 49.1841 23.6051 49.1841C23.2933 49.1841 22.9942 49.0607 22.7731 48.8409L17.7045 43.7783V48.009C17.7045 48.3219 17.5802 48.6221 17.3588 48.8434C17.1375 49.0647 16.8374 49.1891 16.5244 49.1891C16.2114 49.1891 15.9112 49.0647 15.6899 48.8434C15.4686 48.6221 15.3443 48.3219 15.3443 48.009V43.7724L10.2757 48.8409C10.1699 48.9645 10.0397 49.0648 9.89329 49.1356C9.74688 49.2065 9.5874 49.2463 9.42488 49.2526C9.26236 49.2588 9.10029 49.2315 8.94885 49.1721C8.79741 49.1128 8.65987 49.0228 8.54487 48.9078C8.42986 48.7928 8.33987 48.6552 8.28054 48.5038C8.22121 48.3524 8.19382 48.1903 8.2001 48.0278C8.20638 47.8653 8.24618 47.7058 8.31702 47.5594C8.38785 47.413 8.48818 47.2828 8.61172 47.177L13.6803 42.1084H19.3684L24.437 47.177C24.6568 47.3981 24.7802 47.6972 24.7802 48.009C24.7802 48.3207 24.6568 48.6198 24.437 48.8409Z" fill="#FFCFC9"/>
<path d="M28.3218 23.2266V38.568C28.3218 38.881 28.1975 39.1812 27.9762 39.4025C27.7549 39.6238 27.4547 39.7481 27.1417 39.7481H5.89971C5.58673 39.7481 5.28656 39.6238 5.06525 39.4025C4.84393 39.1812 4.7196 38.881 4.7196 38.568V23.2266H2.35938V38.568C2.35938 39.507 2.73237 40.4075 3.39632 41.0714C4.06026 41.7354 4.96076 42.1084 5.89971 42.1084H27.1417C28.0807 42.1084 28.9812 41.7354 29.6451 41.0714C30.3091 40.4075 30.6821 39.507 30.6821 38.568V23.2266H28.3218ZM15.9779 39.8839L16.0664 39.8366L15.9779 39.8839Z" fill="#FFCFC9"/>
<path d="M29.502 20.8667H3.53949C3.2265 20.8667 2.92634 20.991 2.70502 21.2123C2.48371 21.4337 2.35938 21.7338 2.35938 22.0468V23.2269H30.6821V22.0468C30.6821 21.7338 30.5577 21.4337 30.3364 21.2123C30.1151 20.991 29.8149 20.8667 29.502 20.8667Z" fill="#FFCFC9"/>
<path d="M33.0432 19.6863V22.0466C33.0432 22.3595 32.9188 22.6597 32.6975 22.881C32.4762 23.1023 32.176 23.2267 31.863 23.2267H30.6829V22.0466C30.6829 21.7336 30.5586 21.4334 30.3373 21.2121C30.116 20.9908 29.8158 20.8664 29.5028 20.8664H30.6829V19.6863C30.6829 19.3733 30.5586 19.0732 30.3373 18.8519C30.116 18.6306 29.8158 18.5062 29.5028 18.5062H3.54034C3.22735 18.5062 2.92719 18.6306 2.70587 18.8519C2.48456 19.0732 2.36023 19.3733 2.36023 19.6863V20.8664H3.54034C3.22735 20.8664 2.92719 20.9908 2.70587 21.2121C2.48456 21.4334 2.36023 21.7336 2.36023 22.0466V23.2267H1.18011C0.867127 23.2267 0.566961 23.1023 0.345647 22.881C0.124333 22.6597 0 22.3595 0 22.0466V19.6863C0 18.7474 0.372999 17.8469 1.03694 17.1829C1.70088 16.519 2.60138 16.146 3.54034 16.146H29.5028C30.4418 16.146 31.3423 16.519 32.0062 17.1829C32.6702 17.8469 33.0432 18.7474 33.0432 19.6863Z" fill="#FFCFC9"/>
<path d="M14.1606 37.3883C13.8476 37.3883 13.5474 37.264 13.3261 37.0426C13.1048 36.8213 12.9805 36.5212 12.9805 36.2082V31.4877C12.9805 31.1747 13.1048 30.8746 13.3261 30.6533C13.5474 30.432 13.8476 30.3076 14.1606 30.3076C14.4736 30.3076 14.7737 30.432 14.995 30.6533C15.2164 30.8746 15.3407 31.1747 15.3407 31.4877V36.2082C15.3407 36.5212 15.2164 36.8213 14.995 37.0426C14.7737 37.264 14.4736 37.3883 14.1606 37.3883Z" fill="#FFCFC9"/>
<path d="M9.44183 37.3879C9.12885 37.3879 8.82868 37.2636 8.60737 37.0423C8.38605 36.821 8.26172 36.5208 8.26172 36.2078V33.8476C8.26172 33.5346 8.38605 33.2344 8.60737 33.0131C8.82868 32.7918 9.12885 32.6675 9.44183 32.6675C9.75482 32.6675 10.055 32.7918 10.2763 33.0131C10.4976 33.2344 10.6219 33.5346 10.6219 33.8476V36.2078C10.6219 36.5208 10.4976 36.821 10.2763 37.0423C10.055 37.2636 9.75482 37.3879 9.44183 37.3879Z" fill="#FFCFC9"/>
<path d="M23.602 37.388C23.289 37.388 22.9888 37.2637 22.7675 37.0424C22.5462 36.8211 22.4219 36.5209 22.4219 36.2079V26.767C22.4219 26.454 22.5462 26.1539 22.7675 25.9326C22.9888 25.7112 23.289 25.5869 23.602 25.5869C23.915 25.5869 24.2151 25.7112 24.4365 25.9326C24.6578 26.1539 24.7821 26.454 24.7821 26.767V36.2079C24.7821 36.5209 24.6578 36.8211 24.4365 37.0424C24.2151 37.2637 23.915 37.388 23.602 37.388Z" fill="#FFCFC9"/>
<path d="M18.8832 37.3882C18.5703 37.3882 18.2701 37.2638 18.0488 37.0425C17.8275 36.8212 17.7031 36.521 17.7031 36.2081V29.1274C17.7031 28.8144 17.8275 28.5142 18.0488 28.2929C18.2701 28.0716 18.5703 27.9473 18.8832 27.9473C19.1962 27.9473 19.4964 28.0716 19.7177 28.2929C19.939 28.5142 20.0634 28.8144 20.0634 29.1274V36.2081C20.0634 36.521 19.939 36.8212 19.7177 37.0425C19.4964 37.2638 19.1962 37.3882 18.8832 37.3882Z" fill="#FFCFC9"/>
<g filter="url(#filter0_d_1_1916)">
<circle cx="33.1713" cy="19.8315" r="7.83146" fill="#FF6222"/>
</g>
<path d="M36.8554 17.0674L32.0393 22.1348L29.9453 19.9316" stroke="white" stroke-width="3" stroke-linecap="round" stroke-linejoin="round"/>
<defs>
<filter id="filter0_d_1_1916" x="5.33984" y="0" width="55.6629" height="55.6629" filterUnits="userSpaceOnUse" color-interpolation-filters="sRGB">
<feFlood flood-opacity="0" result="BackgroundImageFix"/>
<feColorMatrix in="SourceAlpha" type="matrix" values="0 0 0 0 0 0 0 0 0 0 0 0 0 0 0 0 0 0 127 0" result="hardAlpha"/>
<feOffset dy="8"/>
<feGaussianBlur stdDeviation="10"/>
<feColorMatrix type="matrix" values="0 0 0 0 0.203922 0 0 0 0 0.776471 0 0 0 0 0.207843 0 0 0 0.25 0"/>
<feBlend mode="normal" in2="BackgroundImageFix" result="effect1_dropShadow_1_1916"/>
<feBlend mode="normal" in="SourceGraphic" in2="effect1_dropShadow_1_1916" result="shape"/>
</filter>
</defs>
</svg>
