<svg width="57" height="56" viewBox="0 0 36.66 56" fill="none" xmlns="http://www.w3.org/2000/svg">
<path d="M10.5519 24.7598C6.50959 26.5788 5.57215 30.4607 5.53418 30.6251L7.32387 31.0381C7.33107 31.0067 8.08512 27.8839 11.3056 26.4347L10.5519 24.7598Z" fill="#FDD4CA"/>
<path d="M28.4836 32.4463C28.2313 29.2101 26.8405 26.2028 24.5108 23.8986C22.2643 21.6767 19.3731 20.3354 16.264 20.0487C16.5868 19.7255 16.7864 19.2793 16.7864 18.7864C16.7864 17.7999 15.9867 17 15 17C14.0133 17 13.2136 17.7999 13.2136 18.7864C13.2136 19.2792 13.4132 19.7255 13.736 20.0487C10.6269 20.3354 7.73578 21.6767 5.48924 23.8986C3.15949 26.2028 1.76871 29.2101 1.51641 32.4463H0V34.283H1.46396H3.06123V35.5684L7.24881 37.6553L17.6049 39.2598L17.6406 39.2646C17.6441 39.265 18.0012 39.3155 18.3414 39.5051C18.8483 39.7876 18.9132 40.1523 18.9132 40.4384V40.8531H17.8222V47H28.2194V40.8532H26.8166V36.0494L25.0226 34.283H28.5359H30V32.4463H28.4836ZM17.8702 37.4422L7.81242 35.8839L4.89797 34.4316V34.283H22.4048L24.9799 36.8185V40.8531H20.75V40.4384C20.7501 38.3438 18.8779 37.5652 17.8702 37.4422ZM26.3827 42.7236V45.1633H19.6591V42.7236H26.3827ZM23.1574 32.4463H3.35965C3.90498 26.5113 8.94346 21.8268 15 21.8268C21.0565 21.8268 26.095 26.5113 26.6404 32.4464H23.1574V32.4463Z" fill="#FDD4CA"/>
<g filter="url(#filter0_d_1_1991)">
<circle cx="28.8315" cy="19.8315" r="7.83146" fill="#FF6222"/>
</g>
<path d="M32.5156 17.0674L27.6994 22.1348L25.6055 19.9316" stroke="white" stroke-width="1.54" stroke-linecap="round" stroke-linejoin="round"/>
<defs>
<filter id="filter0_d_1_1991" x="1" y="0" width="55.6629" height="55.6629" filterUnits="userSpaceOnUse" color-interpolation-filters="sRGB">
<feFlood flood-opacity="0" result="BackgroundImageFix"/>
<feColorMatrix in="SourceAlpha" type="matrix" values="0 0 0 0 0 0 0 0 0 0 0 0 0 0 0 0 0 0 127 0" result="hardAlpha"/>
<feOffset dy="8"/>
<feGaussianBlur stdDeviation="10"/>
<feColorMatrix type="matrix" values="0 0 0 0 1 0 0 0 0 0.384314 0 0 0 0 0.133333 0 0 0 0.25 0"/>
<feBlend mode="normal" in2="BackgroundImageFix" result="effect1_dropShadow_1_1991"/>
<feBlend mode="normal" in="SourceGraphic" in2="effect1_dropShadow_1_1991" result="shape"/>
</filter>
</defs>
</svg>
