<svg width="16" height="16" viewBox="0 0 14 14" fill="none" xmlns="http://www.w3.org/2000/svg">
<path d="M11.6856 5.28134L10.25 2H3.75L2.31441 5.28134C2.10706 5.75531 2 6.26706 2 6.78441V13C2 13.5523 2.44772 14 3 14H11C11.5523 14 12 13.5523 12 13V6.78441C12 6.26706 11.8929 5.75531 11.6856 5.28134Z" fill="#FAA037"/>
<path d="M3.5 0H9.75C10.0262 0 10.25 0.223844 10.25 0.5V2H3.5C3.22384 2 3 1.77616 3 1.5V0.5C3 0.223844 3.22384 0 3.5 0Z" fill="#FAA037"/>
<path d="M9.5 0H9.75C10.0262 0 10.25 0.223844 10.25 0.5V2H9.5C9.22384 2 9 1.77616 9 1.5V0.5C9 0.223844 9.22384 0 9.5 0Z" fill="#F57828"/>
<path d="M11.6856 5.28134L10.25 2H3.75L3.53125 2.5H9.53125L8.31441 5.28134C8.10706 5.75531 8 6.26706 8 6.78444V13C8 13.5523 8.44772 14 9 14H11C11.5523 14 12 13.5523 12 13V6.78444C12 6.26706 11.8929 5.75531 11.6856 5.28134V5.28134Z" fill="#F57828"/>
<path d="M2.5 10.6667C2.36194 10.6667 2.25 10.5547 2.25 10.4167V10.25C2.25 9.83647 1.91356 9.5 1.5 9.5C1.36194 9.5 1.25 9.38806 1.25 9.25C1.25 9.11194 1.36194 9 1.5 9C2.18925 9 2.75 9.56075 2.75 10.25V10.4167C2.75 10.5547 2.63806 10.6667 2.5 10.6667Z" fill="#353744"/>
<path d="M3.5 10C3.11575 10 2.76541 10.1447 2.5 10.3822C2.23459 10.1447 1.88425 10 1.5 10C0.671562 10 0 10.6716 0 11.5C0 12.9167 1 14 1.75 14C2.5 14 2.5 14 2.5 14C2.5 14 2.5 14 3.25 14C4 14 5 12.9167 5 11.5C5 10.6716 4.32844 10 3.5 10Z" fill="#D7322D"/>
<path d="M1.25 11.5C1.52614 11.5 1.75 11.2761 1.75 11C1.75 10.7239 1.52614 10.5 1.25 10.5C0.973858 10.5 0.75 10.7239 0.75 11C0.75 11.2761 0.973858 11.5 1.25 11.5Z" fill="#F04B37"/>
<path d="M3.75 8C3.05966 8 2.5 8.55966 2.5 9.25V9.5H2.75C3.44034 9.5 4 8.94034 4 8.25C4 8.11194 3.88806 8 3.75 8Z" fill="#69A041"/>
<path d="M10.5 7H11V5.75C11 5.61194 10.8881 5.5 10.75 5.5H9.25C9.11194 5.5 9 5.61194 9 5.75C9 5.88806 9.11194 6 9.25 6H10.5V7Z" fill="#D7E6E6"/>
<path d="M13.5 7H9.5C9.22384 7 9 7.22384 9 7.5V13.5C9 13.7762 9.22384 14 9.5 14H13.5C13.7762 14 14 13.7762 14 13.5V7.5C14 7.22384 13.7762 7 13.5 7Z" fill="#91B945"/>
<path d="M13.5 7H11.5C11.2238 7 11 7.22384 11 7.5V13.5C11 13.7762 11.2238 14 11.5 14H13.5C13.7762 14 14 13.7762 14 13.5V7.5C14 7.22384 13.7762 7 13.5 7Z" fill="#69A041"/>
<path d="M12.5 11.75C13.1904 11.75 13.75 11.1904 13.75 10.5C13.75 9.80964 13.1904 9.25 12.5 9.25C11.8096 9.25 11.25 9.80964 11.25 10.5C11.25 11.1904 11.8096 11.75 12.5 11.75Z" fill="#FABE19"/>
</svg>
